# xmcd
#
# Track frame offsets: 
#        150
#        13133
#        23606
#        36036
#        49028
#        61028
#        73821
#        84023
#        95428
#        119421
#        133968
#        165361
#        180295
#
# Disc length: 2538 seconds
#
# Revision: 1
# Processed by: cddbd v1.5.2PL0 Copyright (c) Steve Scherf et al.
# Submitted via: ExactAudioCopyFreeDBPlugin 1.0
#
DISCID=9a09e80d
DTITLE=Livin' Blues - Non Album Singles (A&B Sides) and Singles Versions
DTITLE=1968-1974
DYEAR=2019
DGENRE=Blues - Rock
TTITLE0=Murphy McCoy
TTITLE1=My Sister Kate
TTITLE2=You Better Watch Yourself (Sonny Boy)
TTITLE3=Wang Dang Doodle
TTITLE4=Crazy Woman
TTITLE5=Black Lisa (Poor Elijah)
TTITLE6=Red Mountain River
TTITLE7=Choice
TTITLE8=Selection
TTITLE9=L.B. Boogie
TTITLE10=Johnny W
TTITLE11=Boogie Woogie Woman
TTITLE12=Ricochet
EXTD=YEAR: 2019
EXTT0=
EXTT1=
EXTT2=
EXTT3=
EXTT4=
EXTT5=
EXTT6=
EXTT7=
EXTT8=
EXTT9=
EXTT10=
EXTT11=
EXTT12=
PLAYORDER=
